<?xml version="1.0" encoding="utf-8"?>
<!-- Generator: Adobe Illustrator 26.5.0, SVG Export Plug-In . SVG Version: 6.00 Build 0)  -->
<svg version="1.1" id="Layer_1" xmlns="http://www.w3.org/2000/svg" xmlns:xlink="http://www.w3.org/1999/xlink" x="0px" y="0px"
	 viewBox="0 0 792 188.1" style="enable-background:new 0 0 792 188.1;" xml:space="preserve">
<style type="text/css">
	.st0{fill:#58B9C8;}
	.st1{fill:#293758;}
	.st2{fill:#374875;}
	.st3{opacity:0.2;fill:#FFFFFF;}
	.st4{fill:#384A76;}
</style>
<g>
	<g>
		<g>
			<path class="st0" d="M94.3,28.9C80,35,68.1,46.8,62.4,62.6c-1.3,3.6-2.2,7.2-2.8,10.8c4.7-7.6,13.5-11.8,22.4-10.4L94.3,28.9z"/>
			<path class="st1" d="M62.4,62.6C68.1,46.8,80,35,94.3,28.9l0,0c-27.1-3.8-54.2,8.8-68.8,32c0,0,0,0.1,0,0.1l34,12.4c0,0,0,0,0,0
				C60.1,69.7,61.1,66.1,62.4,62.6"/>
			<path class="st2" d="M44.3,67c-0.1,0.2-0.2,0.5-0.3,0.8l15.5,5.6c0,0,0,0,0,0c0.6-3.6,1.5-7.2,2.8-10.8
				C68.1,46.8,80,35,94.3,28.9l0,0C72.4,30.7,52.4,44.9,44.3,67"/>
			<path class="st1" d="M134.6,100.7c-6.1-14.3-17.9-26.2-33.6-32c-3.6-1.3-7.2-2.2-10.8-2.8c7.6,4.7,11.8,13.5,10.4,22.4
				L134.6,100.7z"/>
			<path class="st0" d="M101,68.7c15.8,5.7,27.6,17.6,33.6,32l0,0c3.8-27.1-8.8-54.2-32-68.8c0,0-0.1,0-0.1,0l-12.4,34c0,0,0,0,0,0
				C93.8,66.5,97.4,67.4,101,68.7"/>
			<path class="st1" d="M22.5,69.2c6.1,14.3,17.9,26.2,33.6,32c3.6,1.3,7.2,2.2,10.8,2.8c-7.6-4.7-11.8-13.5-10.4-22.4L22.5,69.2z"
				/>
			<path class="st0" d="M56.2,101.2c-15.8-5.7-27.6-17.6-33.6-32l0,0c-3.8,27.1,8.8,54.2,32,68.8c0,0,0.1,0,0.1,0L67,104
				c0,0,0,0,0,0C63.3,103.4,59.7,102.5,56.2,101.2"/>
			<path class="st2" d="M56.5,81.6l-14.8-5.4c-1.1,5.6-1.2,11.3-0.6,16.8c4.5,3.4,9.5,6.1,15,8.1c3.6,1.3,7.2,2.2,10.8,2.8
				C59.3,99.3,55.2,90.5,56.5,81.6"/>
			<path class="st3" d="M56.2,101.2c-5.5-2-10.6-4.8-15-8.1c1.5,13.3,7.5,25.7,17,35.1L67,104c0,0,0,0,0,0
				C63.3,103.4,59.7,102.5,56.2,101.2"/>
			<path class="st0" d="M62.8,141c14.3-6.1,26.2-17.9,32-33.6c1.3-3.6,2.2-7.2,2.8-10.8c-4.7,7.6-13.5,11.8-22.4,10.4L62.8,141z"/>
			<path class="st1" d="M94.8,107.4c-5.7,15.8-17.6,27.6-32,33.6l0,0c27.1,3.8,54.2-8.8,68.8-32c0,0,0-0.1,0-0.1l-34-12.4
				c0,0,0,0,0,0C97,100.2,96.1,103.8,94.8,107.4"/>
			<path class="st2" d="M112.8,103c0.1-0.2,0.2-0.5,0.3-0.8l-15.5-5.6c0,0,0,0,0,0c-0.6,3.6-1.5,7.2-2.8,10.8
				c-5.7,15.8-17.6,27.6-32,33.6l0,0C84.8,139.3,104.8,125.1,112.8,103"/>
			<path class="st2" d="M100.6,88.3l14.8,5.4c1.1-5.6,1.2-11.3,0.6-16.8c-4.5-3.4-9.5-6.1-15-8.1c-3.6-1.3-7.2-2.2-10.8-2.8
				C97.9,70.6,102,79.5,100.6,88.3"/>
			<path class="st3" d="M101,68.7c5.5,2,10.6,4.8,15,8.1c-1.5-13.3-7.5-25.7-17-35.1l-8.8,24.2c0,0,0,0,0,0
				C93.8,66.5,97.4,67.4,101,68.7"/>
		</g>
	</g>
	<g>
		<path class="st4" d="M562.4,131.8c-15.7,0-32-12.4-32-33.1c0-20.7,16.3-33.1,32-33.1c18.6,0,32.2,13.9,32.2,33.1
			C594.6,117.9,581.1,131.8,562.4,131.8 M562.4,59.6c-13.3,0-25.3,6.6-32,17.2V61.1h-6.3v100.6h6.3v-40.9
			c6.8,10.6,18.7,17.2,32,17.2c22.3,0,38.4-16.5,38.4-39.2C600.8,76.1,584.7,59.6,562.4,59.6"/>
		<path class="st4" d="M759.7,60.6v39.2c0,19.2-12.1,31.6-30.8,31.6c-14.4,0-24-10.7-24-26.7V60.6h-6.2v44.1
			c0,18.8,11.4,31.7,28.6,32.7l0,0.1l0.5,0c1.5,0.1,3.1,0.1,4.6,0l0-0.1c12-0.8,21.7-6.6,27.4-16v13.4l0,1.2
			c-0.4,16.9-11.8,27.8-29.2,27.8c-10.5,0-18.7-2.8-24.3-8.3l-0.7-0.7l-6.4,2.5l1.6,1.7c6.9,7.2,17,10.9,29.9,10.9
			c20.3,0,34.3-12.9,35.4-32.3l0.1-76.8H759.7z"/>
		<path class="st4" d="M648.9,131.4c-18.6,0-32.2-13.9-32.2-33.1c0-19.2,13.5-33.1,32.2-33.1c15.7,0,32,12.4,32,33.1
			C680.9,119,664.7,131.4,648.9,131.4 M683.9,82.1c-5.7-13.9-19.4-22.9-35-22.9c-22.3,0-38.4,16.5-38.4,39.2
			c0,22.7,16.2,39.2,38.4,39.2c13.3,0,25.3-6.6,32-17.2V136h6.2V99.8l0-1C687.2,89.5,684.2,82.7,683.9,82.1"/>
		<g>
			<rect x="326.5" y="21.9" class="st4" width="15.9" height="113.2"/>
			<path class="st4" d="M388.1,137.3c11.2,0,20-4.1,26.2-11.5v9.3h15.9V59.3h-15.9v35c0,19.1-8.9,28.3-22.5,28.3
				c-11,0-18.2-8.4-18.2-20.8V59.3h-15.9V105C357.6,124.1,369.7,137.3,388.1,137.3"/>
			<path class="st4" d="M477.9,124.4c-9.9,0-17.9-3.8-19-12.9l-15.9,3.4c2,15.3,16.5,22.5,33.5,22.5c19,0,32-8.6,32-24.5
				c0-10.7-7.5-17.9-19.7-20.5l-18.1-4c-6.7-1.5-9.2-4.3-9.2-8.6c0-5.4,4.1-9.9,13.5-9.9c9.8,0,16.1,5,17.3,12.4l15.1-3.2
				c-2.8-12.7-14.5-21.9-32-21.9c-18.2,0-30,9.9-30,24c0,10.7,7.5,17.7,20.7,20.7l16.5,3.4c7,1.5,10.3,4.4,10.3,9
				C492.9,120.3,487,124.4,477.9,124.4"/>
			<path class="st4" d="M272.3,123.2C272.3,123.2,272.3,123.2,272.3,123.2L272.3,123.2c-13.6-0.5-24-10.3-24-26
				c0-15.6,10.4-25.5,23.9-26v0c0,0,0.1,0,0.1,0c13.9,0,24.8,10.1,24.8,26C297.1,113.3,286.2,123.2,272.3,123.2 M274.9,57.1h-3.7
				c-19.9,0-37.6,16.2-37.6,40.1c0,24,17.7,40.1,37.6,40.1c17.4-0.3,25.4-10.9,25.4-10.9v8.7h15.9V97.2
				C312.5,73.3,294.8,57.1,274.9,57.1"/>
			<path class="st4" d="M226,122.2c-0.1-0.3-0.4-0.4-0.7-0.4H210c-6.8-0.8-10.9-5.2-10.9-13.9v-37H221V56.7h-21.8V31.1h-15.9v25.6
				h-14.6v14.1h14.6v38.1c0,18.6,10.7,27.7,26.8,28h26.4c0.7,0,1-0.9,0.4-1.4C232.4,132,228.7,127.5,226,122.2"/>
		</g>
	</g>
</g>
</svg>
